<?xml version="1.0" encoding="utf-8"?>
<!-- Generator: Adobe Illustrator 25.2.1, SVG Export Plug-In . SVG Version: 6.00 Build 0)  -->
<svg version="1.1" id="Lager_1" xmlns="http://www.w3.org/2000/svg" xmlns:xlink="http://www.w3.org/1999/xlink" x="0px" y="0px"
	 viewBox="0 0 16 16" style="enable-background:new 0 0 16 16;" xml:space="preserve">
<g>
	<path d="M14.2,11.3c-0.2-0.2-0.5-0.2-0.7,0l-1,1V2.5C12.5,2.2,12.3,2,12,2s-0.5,0.2-0.5,0.5v9.8l-1-1c-0.2-0.2-0.5-0.2-0.7,0
		c-0.2,0.2-0.2,0.5,0,0.7l1.9,1.9c0.2,0.2,0.5,0.2,0.7,0l1.9-1.9C14.4,11.8,14.4,11.5,14.2,11.3z"/>
	<path d="M7.8,8.9C7.7,8.7,7.4,8.5,7.2,8.5H3.8C3.5,8.5,3.3,8.7,3.3,9s0.2,0.5,0.5,0.5h2.8l-3.1,3.8c-0.2,0.2-0.2,0.5-0.1,0.8
		c0.1,0.2,0.4,0.4,0.6,0.4h3.4c0.3,0,0.5-0.2,0.5-0.5s-0.2-0.5-0.5-0.5H4.5l3.1-3.8C7.9,9.5,7.9,9.2,7.8,8.9z"/>
	<path d="M6.1,1.9c-0.2-0.5-1-0.5-1.2,0L2.8,6.8c-0.1,0.3,0,0.5,0.3,0.7c0.3,0.1,0.5,0,0.7-0.3L4.2,6h2.6l0.5,1.2
		c0.1,0.2,0.3,0.3,0.5,0.3c0.1,0,0.1,0,0.2,0c0.3-0.1,0.4-0.4,0.3-0.7L6.1,1.9z M4.7,5l0.9-2l0.9,2H4.7z"/>
</g>
</svg>
