<?xml version="1.0" encoding="utf-8"?>
<!-- Generator: Adobe Illustrator 25.2.1, SVG Export Plug-In . SVG Version: 6.00 Build 0)  -->
<svg version="1.1" id="Lager_1" xmlns="http://www.w3.org/2000/svg" xmlns:xlink="http://www.w3.org/1999/xlink" x="0px" y="0px"
	 viewBox="0 0 20 20" style="enable-background:new 0 0 20 20;" xml:space="preserve">
<style type="text/css">
	.st0{fill:#F9615E;}
</style>
<path class="st0" d="M17.8,15L11.7,4.1c-0.2-0.3-0.4-0.6-0.8-0.8c-1-0.5-2.2-0.2-2.7,0.8L2.2,15c-0.2,0.3-0.3,0.6-0.3,1
	c0,1.1,0.9,2,2,2h12.2c0.3,0,0.7-0.1,1-0.3C18,17.2,18.4,16,17.8,15z M10,15.5c-0.6,0-1-0.4-1-1c0-0.6,0.4-1,1-1s1,0.4,1,1
	C11,15.1,10.6,15.5,10,15.5z M11,11.5c0,0.6-0.4,1-1,1s-1-0.4-1-1v-3c0-0.6,0.4-1,1-1s1,0.4,1,1V11.5z"/>
</svg>
