<?xml version="1.0" encoding="UTF-8"?><svg id="a" xmlns="http://www.w3.org/2000/svg" viewBox="0 0 648 648"><defs><style>.b{fill:#DDD7E9;}</style></defs><g><circle class="b" cx="252" cy="36" r="30"/><circle class="b" cx="324" cy="36" r="36"/><circle class="b" cx="396" cy="36" r="30"/><circle class="b" cx="180" cy="108" r="36"/><circle class="b" cx="468" cy="108" r="36"/><circle class="b" cx="36" cy="180" r="24"/><circle class="b" cx="108" cy="180" r="36"/><circle class="b" cx="180" cy="180" r="36"/><circle class="b" cx="252" cy="180" r="36"/><circle class="b" cx="324" cy="180" r="36"/><circle class="b" cx="396" cy="180" r="36"/><circle class="b" cx="468" cy="180" r="36"/><circle class="b" cx="36" cy="252" r="30"/><circle class="b" cx="108" cy="252" r="36"/><circle class="b" cx="36" cy="324" r="36"/><circle class="b" cx="108" cy="324" r="36"/><circle class="b" cx="252" cy="324" r="30"/><circle class="b" cx="324" cy="324" r="36"/><circle class="b" cx="396" cy="324" r="30"/><circle class="b" cx="36" cy="396" r="36"/><circle class="b" cx="180" cy="396" r="36"/><circle class="b" cx="252" cy="396" r="36"/><circle class="b" cx="324" cy="396" r="12"/><circle class="b" cx="396" cy="396" r="36"/><circle class="b" cx="468" cy="396" r="36"/><circle class="b" cx="36" cy="468" r="36"/><circle class="b" cx="252" cy="468" r="30"/><circle class="b" cx="324" cy="468" r="36"/><circle class="b" cx="396" cy="468" r="30"/><circle class="b" cx="540" cy="180" r="36"/><circle class="b" cx="540" cy="252" r="36"/><circle class="b" cx="540" cy="324" r="36"/><circle class="b" cx="612" cy="180" r="24"/><circle class="b" cx="612" cy="252" r="30"/><circle class="b" cx="612" cy="324" r="36"/><circle class="b" cx="612" cy="396" r="36"/><circle class="b" cx="612" cy="468" r="36"/><circle class="b" cx="36" cy="540" r="30"/><circle class="b" cx="108" cy="540" r="24"/><circle class="b" cx="540" cy="540" r="24"/><circle class="b" cx="612" cy="540" r="30"/><circle class="b" cx="108" cy="612" r="30"/><circle class="b" cx="180" cy="612" r="36"/><circle class="b" cx="252" cy="612" r="36"/><circle class="b" cx="324" cy="612" r="36"/><circle class="b" cx="396" cy="612" r="36"/><circle class="b" cx="468" cy="612" r="36"/><circle class="b" cx="540" cy="612" r="30"/></g><circle class="b" cx="108" cy="396" r="12"/><circle class="b" cx="108" cy="468" r="12"/><circle class="b" cx="540" cy="396" r="12"/><circle class="b" cx="540" cy="468" r="12"/><circle class="b" cx="252" cy="612" r="36"/><circle class="b" cx="324" cy="612" r="36"/><circle class="b" cx="396" cy="612" r="36"/></svg>