<?xml version="1.0" encoding="iso-8859-1"?>
<!-- Generator: Adobe Illustrator 22.1.0, SVG Export Plug-In . SVG Version: 6.00 Build 0)  -->
<!DOCTYPE svg PUBLIC "-//W3C//DTD SVG 1.1//EN" "http://www.w3.org/Graphics/SVG/1.1/DTD/svg11.dtd">
<svg version="1.1" id="Lager_1" xmlns="http://www.w3.org/2000/svg" xmlns:xlink="http://www.w3.org/1999/xlink" x="0px" y="0px"
	 viewBox="0 0 16 16" style="enable-background:new 0 0 16 16;" xml:space="preserve">
<g>
	<path style="fill:#0E76B7;" d="M10.647,5.646L7.112,9.181L5.697,7.767c-0.194-0.194-0.513-0.194-0.707,0s-0.194,0.513,0,0.707l1.768,1.768l0,0
		c0.194,0.194,0.513,0.194,0.707,0l3.889-3.889c0.194-0.194,0.194-0.513,0-0.707C11.16,5.451,10.841,5.451,10.647,5.646z"/>
	<path style="fill:#0E76B7;" d="M8,0C3.582,0,0,3.582,0,8s3.582,8,8,8s8-3.582,8-8S12.418,0,8,0z M8,15c-3.86,0-7-3.14-7-7s3.14-7,7-7s7,3.14,7,7
		S11.86,15,8,15z"/>
</g>
</svg>
