<?xml version="1.0" encoding="utf-8"?>
<!-- Generator: Adobe Illustrator 24.0.0, SVG Export Plug-In . SVG Version: 6.00 Build 0)  -->
<svg version="1.1" id="Lager_1" xmlns="http://www.w3.org/2000/svg" xmlns:xlink="http://www.w3.org/1999/xlink" x="0px" y="0px"
	 viewBox="0 0 16 16" style="enable-background:new 0 0 16 16;" xml:space="preserve">
<style type="text/css">
	.st0{fill:#6CC04A;}
	.st1{fill:#FFFFFF;}
</style>
<path id="Path_10783" class="st0" d="M8,0c4.4,0,8,3.6,8,8s-3.6,8-8,8s-8-3.6-8-8S3.6,0,8,0z"/>
<path id="Union_3441" class="st1" d="M6.9,11.2c-0.3,0-0.5-0.1-0.7-0.3l0,0L4.1,8.8c-0.4-0.4-0.4-1,0-1.4s1-0.4,1.4,0l1.4,1.4
	l3.5-3.5c0.4-0.4,1-0.4,1.4,0c0.4,0.4,0.4,1,0,1.4l-4.2,4.2l0,0C7.5,11.1,7.2,11.2,6.9,11.2L6.9,11.2z"/>
</svg>
