<?xml version="1.0" encoding="utf-8"?>
<!-- Generator: Adobe Illustrator 23.0.3, SVG Export Plug-In . SVG Version: 6.00 Build 0)  -->
<svg version="1.1" id="Lager_1" xmlns="http://www.w3.org/2000/svg" xmlns:xlink="http://www.w3.org/1999/xlink" x="0px" y="0px"
	 viewBox="0 0 48 48" style="enable-background:new 0 0 48 48;" xml:space="preserve">
<style type="text/css">
	.st0{fill:#7cc0eb;}
</style>
<g>
	<path class="st0" d="M41.1,6h-6.6h-3h-3.3c0.2-0.5,0.3-1,0.3-1.5c0-2.4-2.1-4.5-4.5-4.5c-2.4,0-4.5,2.1-4.5,4.5
		c0,0.5,0.1,1,0.3,1.5h-3.3h-3H6.9C4.8,6,3,7.8,3,10v34.1C3,46.2,4.8,48,6.9,48h34.1c2.1,0,3.9-1.8,3.9-3.9V10C45,7.8,43.2,6,41.1,6
		z M23.8,3c0.9,0,1.5,0.6,1.5,1.5c0,0.9-0.6,1.5-1.5,1.5c-0.9,0-1.5-0.6-1.5-1.5C22.3,3.6,22.9,3,23.8,3z M16.3,9.1h15.1v2.1
		c0,0.6-0.3,0.9-0.9,0.9H17.2c-0.6,0-0.9-0.3-0.9-0.9V9.1z M42,44.1c0,0.6-0.3,0.9-0.9,0.9H6.9C6.3,45,6,44.7,6,44.1V10
		c0-0.6,0.3-0.9,0.9-0.9h6.3v2.1c0,2.1,1.8,3.9,3.9,3.9h13c2.1,0,3.9-1.8,3.9-3.9V9.1h6.9c0.6,0,0.9,0.3,0.9,0.9V44.1z"/>
	<path class="st0" d="M17.5,21.4l-3.2,3.2l-1.1-1.1c-0.6-0.6-1.5-0.6-2.1,0c-0.6,0.6-0.6,1.5,0,2.1l2.1,2.1c0.6,0.6,1.5,0.6,2.1,0
		l4.2-4.2c0.6-0.6,0.6-1.5,0-2.1C19,20.9,18.1,20.9,17.5,21.4z"/>
	<path class="st0" d="M35,24H25c-0.5,0-1,0.4-1,1v1c0,0.5,0.4,1,1,1h10c0.5,0,1-0.4,1-1v-1C36,24.4,35.6,24,35,24z"/>
	<path class="st0" d="M35,33H25c-0.5,0-1,0.4-1,1v1c0,0.5,0.4,1,1,1h10c0.5,0,1-0.4,1-1v-1C36,33.4,35.6,33,35,33z"/>
</g>
</svg>
