<?xml version="1.0" encoding="UTF-8"?><svg id="Lager_1" xmlns="http://www.w3.org/2000/svg" viewBox="0 0 24 24"><defs><style>.cls-1{fill:#e56385;}.cls-2{fill:#fff;}.cls-3{fill:#848484;}</style></defs><path class="cls-3" d="m18,10c1.0618,0,2.0729.2114,3,.587v-5.087c0-1.3807-1.1193-2.5-2.5-2.5h-9.5v-.5c0-1.3807-1.1193-2.5-2.5-2.5H2.5C1.1193,0,0,1.1193,0,2.5v13c0,1.3807,1.1193,2.5,2.5,2.5h7.5c0-4.4183,3.5817-8,8-8Z"/><circle id="Ellipse_12095" class="cls-1" cx="18" cy="18" r="6"/><path class="cls-2" d="m19.4142,18l1.0607-1.0607c.3906-.3905.3906-1.0237,0-1.4142-.3905-.3906-1.0237-.3906-1.4142,0l-1.0607,1.0607-1.0607-1.0607c-.3905-.3906-1.0237-.3906-1.4142,0-.3906.3905-.3906,1.0237,0,1.4142l1.0607,1.0607-1.0607,1.0607c-.3906.3905-.3906,1.0237,0,1.4142.3905.3906,1.0237.3906,1.4142,0l1.0607-1.0607,1.0607,1.0607c.3905.3906,1.0237.3906,1.4142,0,.3906-.3905.3906-1.0237,0-1.4142l-1.0607-1.0607Z"/></svg>