<?xml version="1.0" encoding="utf-8"?>
<!-- Generator: Adobe Illustrator 25.1.0, SVG Export Plug-In . SVG Version: 6.00 Build 0)  -->
<svg version="1.1" id="Lager_1" xmlns="http://www.w3.org/2000/svg" xmlns:xlink="http://www.w3.org/1999/xlink" x="0px" y="0px"
	 viewBox="0 0 30 30" style="enable-background:new 0 0 30 30;" xml:space="preserve">
<style type="text/css">
	.st0{fill:#E7FFDE;}
	.st1{opacity:0.999;fill:#CAF0BA;enable-background:new    ;}
	.st2{fill:#B2E49E;}
	.st3{opacity:0.996;fill:#ABE095;enable-background:new    ;}
	.st4{fill:#9CD983;}
</style>
<circle id="Ellipse_1574" class="st0" cx="15" cy="15" r="14"/>
<path id="Path_11522" class="st1" d="M9.5,13.5c0,0.9,0.2,1.9,0.7,2.7c-1.2,1.5-3.4,1.7-4.9,0.5C4.5,16.1,4,15.1,4,14v-1
	c0-1.9,1.6-3.5,3.5-3.5c0.9,0,1.7,0.3,2.4,1c-0.3,0.6-0.4,1.3-0.4,2V13.5z"/>
<path id="Path_11527" class="st1" d="M26,13v1c0,1.9-1.6,3.5-3.5,3.5c-1.1,0-2.1-0.5-2.7-1.3c0.5-0.8,0.7-1.8,0.7-2.7v-1
	c0-0.7-0.1-1.4-0.4-2c1.4-1.3,3.6-1.2,4.9,0.2C25.7,11.3,26,12.1,26,13z"/>
<path id="Path_11523" class="st2" d="M19.5,13.5v-1c0-0.3,0-0.5-0.1-0.8c0-0.1,0-0.1,0-0.2c0,0,0,0,0-0.1v0c-0.6-2.4-3-3.9-5.4-3.3
	c-1.7,0.4-3,1.7-3.3,3.3v0c0,0,0,0,0,0.1c0,0.1,0,0.1,0,0.2c-0.1,0.3-0.1,0.5-0.1,0.8v1c0,0.3,0,0.6,0.1,0.9c0,0.1,0.1,0.2,0.1,0.3
	c0,0.2,0.1,0.3,0.1,0.4v0c0.9,2.3,3.5,3.5,5.8,2.6c1.2-0.5,2.1-1.4,2.6-2.6v0c0-0.1,0.1-0.2,0.1-0.3c0.1-0.1,0.1-0.3,0.1-0.4
	C19.5,14.1,19.5,13.8,19.5,13.5z"/>
<path id="Path_11524" class="st3" d="M26,19.9c-0.7,1.5-1.6,2.8-2.8,3.9c-0.8-1.7-2.1-3.1-3.7-4.1C21.5,18.7,24,18.8,26,19.9z"/>
<path id="Path_11525" class="st3" d="M10.5,19.7c-1.6,0.9-2.9,2.4-3.7,4.1c-1.2-1.1-2.1-2.4-2.8-3.9C6,18.8,8.5,18.7,10.5,19.7z"/>
<path id="Path_11526" class="st4" d="M21.8,23.3c-0.1-0.1-0.1-0.2-0.2-0.3c-0.3-0.4-0.6-0.8-0.9-1.1c-0.1-0.1-0.2-0.2-0.3-0.3
	c-0.3-0.3-0.7-0.6-1-0.8c-0.1-0.1-0.3-0.2-0.4-0.2c-0.2-0.1-0.3-0.2-0.5-0.3c-1.1-0.5-2.3-0.8-3.5-0.8c-3.2,0-6.2,1.9-7.4,4.9
	C9.7,26.1,12.3,27,15,27c0.2,0,0.4,0,0.6,0c2.5-0.1,4.9-1,6.8-2.5v0C22.2,24.1,22.1,23.7,21.8,23.3z"/>
</svg>
