<?xml version="1.0" encoding="utf-8"?>
<!-- Generator: Adobe Illustrator 26.0.2, SVG Export Plug-In . SVG Version: 6.00 Build 0)  -->
<svg version="1.1" id="Lager_1" xmlns="http://www.w3.org/2000/svg" xmlns:xlink="http://www.w3.org/1999/xlink" x="0px" y="0px"
	 viewBox="0 0 14 14" style="enable-background:new 0 0 14 14;" xml:space="preserve">
<style type="text/css">
	.st0{fill:#F9423A;}
	.st1{fill:#FFFFFF;}
</style>
<path id="Polygon_87" class="st0" d="M5.5,1C6,0.2,7-0.1,7.8,0.3C8.1,0.5,8.4,0.7,8.5,1l5.3,9.4c0.5,0.8,0.2,1.9-0.7,2.4
	c-0.3,0.1-0.5,0.2-0.8,0.2H1.7c-1,0-1.7-0.8-1.7-1.7c0-0.3,0.1-0.6,0.2-0.8L5.5,1z"/>
<path id="Union_3896" class="st1" d="M6.1,10c0-0.5,0.4-0.9,0.9-0.9c0.5,0,0.9,0.4,0.9,0.9c0,0.5-0.4,0.9-0.9,0.9l0,0
	C6.5,10.8,6.1,10.5,6.1,10z M6.1,7.4V4.8c0-0.5,0.4-0.9,0.9-0.9c0.5,0,0.9,0.4,0.9,0.9v2.6c0,0.5-0.4,0.9-0.9,0.9
	C6.5,8.2,6.1,7.9,6.1,7.4z"/>
</svg>
