<?xml version="1.0" encoding="utf-8"?>
<!-- Generator: Adobe Illustrator 24.0.0, SVG Export Plug-In . SVG Version: 6.00 Build 0)  -->
<svg version="1.1" id="Lager_1" xmlns="http://www.w3.org/2000/svg" xmlns:xlink="http://www.w3.org/1999/xlink" x="0px" y="0px"
	 viewBox="0 0 16 16" style="enable-background:new 0 0 16 16;" xml:space="preserve">
<style type="text/css">
	.st0{fill:#E56385;}
	.st1{fill:#FFFFFF;}
</style>
<path id="Path_10784" class="st0" d="M8,0c4.4,0,8,3.6,8,8s-3.6,8-8,8s-8-3.6-8-8S3.6,0,8,0z"/>
<path class="st1" d="M9.4,8l1.4-1.4c0.4-0.4,0.4-1,0-1.4c-0.4-0.4-1-0.4-1.4,0L8,6.6L6.6,5.2c-0.4-0.4-1-0.4-1.4,0
	c-0.4,0.4-0.4,1,0,1.4L6.6,8L5.2,9.4c-0.4,0.4-0.4,1,0,1.4c0.4,0.4,1,0.4,1.4,0L8,9.4l1.4,1.4c0.4,0.4,1,0.4,1.4,0
	c0.4-0.4,0.4-1,0-1.4L9.4,8z"/>
</svg>
