<?xml version="1.0" encoding="iso-8859-1"?>
<!-- Generator: Adobe Illustrator 22.1.0, SVG Export Plug-In . SVG Version: 6.00 Build 0)  -->
<!DOCTYPE svg PUBLIC "-//W3C//DTD SVG 1.1//EN" "http://www.w3.org/Graphics/SVG/1.1/DTD/svg11.dtd">
<svg version="1.1" id="Lager_1" xmlns="http://www.w3.org/2000/svg" xmlns:xlink="http://www.w3.org/1999/xlink" x="0px" y="0px"
	 viewBox="24 -24 64 64" style="enable-background:new 24 -24 64 64;"  fill="#2b86bf" xml:space="preserve">
<g>
	<path d="M56-3C49.9-3,45,1.9,45,8s4.9,11,11,11s11-4.9,11-11S62.1-3,56-3z M56,15c-3.9,0-7-3.1-7-7s3.1-7,7-7s7,3.1,7,7
		S59.9,15,56,15z"/>
	<path d="M86.1,3.3C80.2-2.7,68.9-12,56-12S31.8-2.7,25.9,3.2c-2.6,2.6-2.6,6.9,0,9.5C31.8,18.7,43.1,28,56,28s24.2-9.3,30.1-15.2
		C88.7,10.2,88.7,5.9,86.1,3.3z M83.2,9.9C78,15.2,67.6,24,56,24s-22-8.8-27.2-14c-1.1-1.1-1.1-2.9,0-3.9C34,0.8,44.4-8,56-8
		S78,0.8,83.2,6C84.3,7.1,84.3,8.9,83.2,9.9z"/>
</g>
</svg>
