<?xml version="1.0" encoding="utf-8"?>
<!-- Generator: Adobe Illustrator 23.1.1, SVG Export Plug-In . SVG Version: 6.00 Build 0)  -->
<svg version="1.1" id="Lager_1" xmlns="http://www.w3.org/2000/svg" xmlns:xlink="http://www.w3.org/1999/xlink" x="0px" y="0px"
	 viewBox="0 0 48 48" style="enable-background:new 0 0 48 48;" xml:space="preserve">
	 <style type="text/css">
	.st0{fill:#7cc0eb;}
</style>			
<path class="st0" d="M41.2,33.8c-2.4,0-4.4,1.6-5,3.8h-7h-3.8h-15c-3.3,0-6-2.7-6-6c0-3.3,2.7-6,6-6h6.1c0.8,4,4.8,6.7,8.9,5.9
	c2.9-0.6,5.2-2.9,5.9-5.9h6.1c5,0,9-4,9-9c0-5-4-9-9-9H18.8h-2.2h-4.7c-0.7-2.2-2.6-3.8-5-3.8C3.9,3.8,1.5,6.1,1.5,9
	c0,2.9,2.4,5.2,5.2,5.2c2.4,0,4.4-1.6,5-3.8h4.7h2.2h18.8c3.3,0,6,2.7,6,6c0,3.3-2.7,6-6,6h-6.1c-0.8-4.1-4.8-6.7-8.9-5.9
	c-2.9,0.6-5.2,2.9-5.9,5.9h-6.1c-5,0-9,4-9,9c0,5,4,9,9,9h15h3.8h7c0.7,2.2,2.6,3.8,5,3.8c2.9,0,5.2-2.4,5.2-5.2
	C46.5,36.1,44.1,33.8,41.2,33.8z M6.8,11.2c-1.2,0-2.2-1-2.2-2.2c0-1.2,1-2.2,2.2-2.2S9,7.8,9,9C9,10.2,8,11.2,6.8,11.2z M24,19.5
	c2.5,0,4.5,2,4.5,4.5c0,2.5-2,4.5-4.5,4.5s-4.5-2-4.5-4.5C19.5,21.5,21.5,19.5,24,19.5z M41.2,41.2c-1.2,0-2.2-1-2.2-2.2
	c0-1.2,1-2.2,2.2-2.2s2.2,1,2.2,2.2C43.5,40.2,42.5,41.2,41.2,41.2z"/>
</svg>
