<?xml version="1.0" encoding="utf-8"?>
<!-- Generator: Adobe Illustrator 23.1.1, SVG Export Plug-In . SVG Version: 6.00 Build 0)  -->
<svg version="1.1" id="Lager_1" xmlns="http://www.w3.org/2000/svg"
 xmlns:xlink="http://www.w3.org/1999/xlink" x="0px" y="0px" fill="#2b86bf" 
	 viewBox="24 -24 64 64" style="enable-background:new 24 -24 64 64;" xml:space="preserve">
<g>
	<path d="M57.7,14.8l-4,4c0.7,0.1,1.5,0.2,2.3,0.2c6.1,0,11-4.9,11-11c0-0.8-0.1-1.5-0.2-2.3l-4,4C62.2,12.2,60.2,14.2,57.7,14.8z"
		/>
	<path d="M45,8c0,0.8,0.1,1.5,0.2,2.3l4-4c0.6-2.5,2.6-4.5,5.1-5.1l4-4C57.5-2.9,56.8-3,56-3C49.9-3,45,1.9,45,8z"/>
	<path d="M35,20.5l2.9-2.9C34.1,15,31,12.2,28.8,10c-1.1-1.1-1.1-2.9,0-3.9C34,0.8,44.4-8,56-8c2.3,0,4.5,0.3,6.6,0.9l3.2-3.2
		C62.7-11.3,59.4-12,56-12C43.1-12,31.8-2.7,25.9,3.2c-2.6,2.6-2.6,6.9,0,9.5C28.2,15,31.3,17.9,35,20.5z"/>
	<path d="M86.1,3.3C83.8,1,80.7-1.9,77-4.5l-2.9,2.9C77.9,1,81,3.8,83.2,6c1.1,1.1,1.1,2.9,0,3.9C78,15.2,67.6,24,56,24
		c-2.3,0-4.5-0.3-6.6-0.9l-3.2,3.2c3.1,1.1,6.4,1.7,9.8,1.7c12.9,0,24.2-9.3,30.1-15.2C88.7,10.2,88.7,5.9,86.1,3.3z"/>
	<path d="M52.7,14.2l9.5-9.5l2.9-2.9l5.5-5.5l2.9-2.9l13.9-13.9c0.8-0.8,0.8-2,0-2.8C87-23.8,86.5-24,86-24s-1,0.2-1.4,0.6L69.8-8.7
		l-3,3l-4.5,4.5l-2.9,2.9h0l-9.5,9.5v0l-2.9,2.9l-5.5,5.5l-2.9,2.9L24.6,36.6c-0.8,0.8-0.8,2,0,2.8C25,39.8,25.5,40,26,40
		s1-0.2,1.4-0.6l14.8-14.8l3-3l4.5-4.5L52.7,14.2z"/>
</g>
</svg>
