<?xml version="1.0" encoding="utf-8"?>
<!-- Generator: Adobe Illustrator 24.0.0, SVG Export Plug-In . SVG Version: 6.00 Build 0)  -->
<svg version="1.1" id="Lager_1" xmlns="http://www.w3.org/2000/svg" xmlns:xlink="http://www.w3.org/1999/xlink" x="0px" y="0px"
	 viewBox="0 0 16 16" style="enable-background:new 0 0 16 16;" xml:space="preserve">
<style type="text/css">
	.st0{fill:#F78D2D;}
	.st1{fill:#FFFFFF;}
</style>
<path id="Path_10785" class="st0" d="M8,0c4.4,0,8,3.6,8,8s-3.6,8-8,8s-8-3.6-8-8S3.6,0,8,0z"/>
<g>
	<path class="st1" d="M10,5C9.4,5,9,5.4,9,6v4c0,0.6,0.4,1,1,1c0.6,0,1-0.4,1-1V6C11,5.4,10.6,5,10,5z"/>
	<path class="st1" d="M6,5C5.4,5,5,5.4,5,6v4c0,0.6,0.4,1,1,1c0.6,0,1-0.4,1-1V6C7,5.4,6.6,5,6,5z"/>
</g>
</svg>
