<?xml version="1.0" encoding="iso-8859-1"?>
<!-- Generator: Adobe Illustrator 22.1.0, SVG Export Plug-In . SVG Version: 6.00 Build 0)  -->
<!DOCTYPE svg PUBLIC "-//W3C//DTD SVG 1.1//EN" "http://www.w3.org/Graphics/SVG/1.1/DTD/svg11.dtd">
<svg version="1.1" id="Lager_1" xmlns="http://www.w3.org/2000/svg" xmlns:xlink="http://www.w3.org/1999/xlink" x="0px" y="0px"
	 viewBox="0 0 16 16" style="enable-background:new 0 0 16 16;" xml:space="preserve">
<g>
	<path style="fill:#0E76B7;" d="M8,0C3.575,0,0,3.575,0,8s3.575,8,8,8s8-3.575,8-8S12.425,0,8,0z M8,15c-3.85,0-7-3.15-7-7
		c0-3.85,3.15-7,7-7s7,3.15,7,7C15,11.85,11.85,15,8,15z"/>
	<path style="fill:#0E76B7;" d="M9.17,11H8.5V6.67V6.33C8.5,6.148,8.352,6,8.17,6H7.83h-1C6.648,6,6.5,6.148,6.5,6.33v0.34
		C6.5,6.852,6.648,7,6.83,7H7.5v4H6.83c-0.182,0-0.33,0.148-0.33,0.33v0.34C6.5,11.852,6.648,12,6.83,12h1h0.34h1
		c0.182,0,0.33-0.148,0.33-0.33v-0.34C9.5,11.148,9.352,11,9.17,11z"/>
	<circle style="fill:#0E76B7;" cx="8" cy="4.5" r="0.75"/>
</g>
</svg>
