<?xml version="1.0" encoding="utf-8"?>
<!-- Generator: Adobe Illustrator 24.0.1, SVG Export Plug-In . SVG Version: 6.00 Build 0)  -->
<svg version="1.1" id="Lager_1" xmlns="http://www.w3.org/2000/svg" xmlns:xlink="http://www.w3.org/1999/xlink" x="0px" y="0px"
	 viewBox="0 0 48 48" style="enable-background:new 0 0 48 48;" xml:space="preserve">
<style type="text/css">
	.st0{fill:#D51A68;}
	.st1{fill:#9B9A9A;}
</style>
<g id="Group_6605" transform="translate(0 0)">
	<path id="Path_8488" class="st0" d="M42,24c0,1.84-0.28,3.68-0.83,5.44c-6.32,0.37-11.37,5.41-11.74,11.74
		c-3.54,1.1-7.33,1.1-10.87,0c-0.17-3.06-1.47-5.94-3.64-8.1c-2.16-2.17-5.04-3.47-8.1-3.64c-1.1-3.54-1.1-7.33,0-10.87
		c3.06-0.17,5.94-1.47,8.1-3.64c2.17-2.16,3.47-5.04,3.64-8.1c3.54-1.1,7.33-1.1,10.87,0c0.17,3.06,1.47,5.94,3.64,8.1
		c2.16,2.17,5.04,3.47,8.1,3.64C41.72,20.32,42,22.16,42,24z"/>
	<path id="Path_8489" class="st1" d="M12.16,0.3c-0.31-0.36-0.86-0.4-1.22-0.09c-0.02,0.01-0.03,0.03-0.05,0.05L0.26,10.89
		c-0.34,0.33-0.35,0.87-0.02,1.21c0.02,0.02,0.04,0.04,0.06,0.05c3.65,2.9,8.96,2.3,11.86-1.35C14.61,7.73,14.61,3.37,12.16,0.3z"/>
	<path id="Path_8490" class="st1" d="M47.7,35.84c-3.64-2.91-8.95-2.33-11.86,1.31c-2.47,3.08-2.47,7.47,0,10.56
		c0.31,0.36,0.85,0.4,1.21,0.08c0.02-0.02,0.04-0.03,0.05-0.05l10.64-10.64c0.34-0.33,0.35-0.87,0.02-1.21
		C47.74,35.87,47.72,35.86,47.7,35.84z"/>
	<path id="Path_8491" class="st1" d="M11.54,36.45C8.5,33.41,3.65,33.14,0.3,35.84c-0.36,0.31-0.4,0.86-0.08,1.22
		c0.01,0.02,0.03,0.03,0.05,0.05L10.9,47.74c0.33,0.34,0.87,0.35,1.21,0.02c0.02-0.02,0.03-0.03,0.05-0.05
		C14.86,44.35,14.59,39.49,11.54,36.45z"/>
	<path id="Path_8492" class="st1" d="M47.74,10.9L37.11,0.26c-0.33-0.34-0.87-0.35-1.21-0.02c-0.02,0.02-0.04,0.04-0.05,0.06
		c-2.91,3.65-2.31,8.96,1.34,11.86c3.08,2.46,7.45,2.46,10.53,0c0.36-0.31,0.4-0.86,0.08-1.22C47.77,10.93,47.76,10.91,47.74,10.9z"
		/>
</g>
</svg>
