<?xml version="1.0" encoding="utf-8"?>
<!-- Generator: Adobe Illustrator 24.0.0, SVG Export Plug-In . SVG Version: 6.00 Build 0)  -->
<svg version="1.1" id="Lager_1" xmlns="http://www.w3.org/2000/svg" xmlns:xlink="http://www.w3.org/1999/xlink" x="0px" y="0px"
	 viewBox="0 0 24 24" style="enable-background:new 0 0 24 24;" xml:space="preserve">
<style type="text/css">
	.st0{fill:#F0B3CA;}
	.st1{fill:#FFFFFF;}
	.st2{fill:#6CC04A;}
</style>
<path id="Path_10749" class="st0" d="M8,4c4.4,0,8,3.6,8,8s-3.6,8-8,8s-8-3.6-8-8S3.6,4,8,4z"/>
<path class="st1" d="M9.4,12l1.4-1.4c0.4-0.4,0.4-1,0-1.4c-0.4-0.4-1-0.4-1.4,0L8,10.6L6.6,9.2c-0.4-0.4-1-0.4-1.4,0
	c-0.4,0.4-0.4,1,0,1.4L6.6,12l-1.4,1.4c-0.4,0.4-0.4,1,0,1.4c0.4,0.4,1,0.4,1.4,0L8,13.4l1.4,1.4c0.4,0.4,1,0.4,1.4,0
	c0.4-0.4,0.4-1,0-1.4L9.4,12z"/>
<path id="Path_10750" class="st2" d="M16,4c4.4,0,8,3.6,8,8s-3.6,8-8,8s-8-3.6-8-8S11.6,4,16,4z"/>
<path id="Union_3400" class="st1" d="M14.9,15.2c-0.3,0-0.5-0.1-0.7-0.3l0,0l-2.1-2.1c-0.4-0.4-0.4-1,0-1.4s1-0.4,1.4,0l1.4,1.4
	l3.5-3.5c0.4-0.4,1-0.4,1.4,0c0.4,0.4,0.4,1,0,1.4l-4.2,4.2l0,0C15.5,15.1,15.2,15.2,14.9,15.2L14.9,15.2z"/>
</svg>
