<?xml version="1.0" encoding="utf-8"?>
<!-- Generator: Adobe Illustrator 24.0.3, SVG Export Plug-In . SVG Version: 6.00 Build 0)  -->
<svg version="1.1" id="Lager_1" xmlns="http://www.w3.org/2000/svg" xmlns:xlink="http://www.w3.org/1999/xlink" x="0px" y="0px"
	 viewBox="0 0 24 24" style="enable-background:new 0 0 24 24;" xml:space="preserve">
<style type="text/css">
	.st0{fill:#333333;}
</style>
<path class="st0" d="M19.12,18.36l-5.66-5.66c-0.19-0.19-0.29-0.44-0.29-0.71c0-0.27,0.1-0.52,0.29-0.71l5.66-5.66
	c0.39-0.39,1.02-0.39,1.41,0c0,0,0,0,0,0c0.39,0.39,0.39,1.02,0,1.41L15.59,12l4.95,4.95c0.39,0.39,0.39,1.02,0,1.41c0,0,0,0,0,0
	c-0.19,0.19-0.44,0.29-0.71,0.29C19.56,18.66,19.31,18.55,19.12,18.36z"/>
<path class="st0" d="M9.12,18.36l-5.66-5.66C3.28,12.52,3.17,12.27,3.17,12c0-0.27,0.11-0.52,0.29-0.71l5.66-5.66
	c0.39-0.39,1.02-0.39,1.41,0c0,0,0,0,0,0c0.39,0.39,0.39,1.02,0,1.41L5.59,12l4.95,4.95c0.39,0.39,0.39,1.02,0,1.41c0,0,0,0,0,0
	c-0.19,0.19-0.44,0.29-0.71,0.29C9.56,18.66,9.31,18.55,9.12,18.36z"/>
</svg>
