<?xml version="1.0" encoding="iso-8859-1"?>
<!-- Generator: Adobe Illustrator 22.1.0, SVG Export Plug-In . SVG Version: 6.00 Build 0)  -->
<!DOCTYPE svg PUBLIC "-//W3C//DTD SVG 1.1//EN" "http://www.w3.org/Graphics/SVG/1.1/DTD/svg11.dtd">
<svg version="1.1" id="Lager_1" xmlns="http://www.w3.org/2000/svg" xmlns:xlink="http://www.w3.org/1999/xlink" x="0px" y="0px"
	 viewBox="0 0 16 16" style="enable-background:new 0 0 16 16;" xml:space="preserve">
<g>
	<g>
		<path style="fill:#0E76B7;" d="M11,0c-0.275,0-0.5,0.225-0.5,0.5V1h-2V0.5C8.5,0.225,8.275,0,8,0C7.725,0,7.5,0.225,7.5,0.5V1h-2
			V0.5C5.5,0.225,5.275,0,5,0S4.5,0.225,4.5,0.5V1H3.33C2.597,1,2,1.597,2,2.33v12.34C2,15.403,2.597,16,3.33,16h9.34
			c0.733,0,1.33-0.597,1.33-1.33V2.33C14,1.597,13.403,1,12.67,1H11.5V0.5C11.5,0.225,11.275,0,11,0L11,0z M11,3
			c0.275,0,0.5-0.225,0.5-0.5V2h1.17C12.852,2,13,2.148,13,2.33v12.34c0,0.182-0.148,0.33-0.33,0.33H3.33C3.148,15,3,14.852,3,14.67
			V2.33C3,2.148,3.148,2,3.33,2H4.5v0.5C4.5,2.775,4.725,3,5,3s0.5-0.225,0.5-0.5V2h2v0.5C7.5,2.775,7.725,3,8,3
			c0.275,0,0.5-0.225,0.5-0.5V2h2v0.5C10.5,2.775,10.725,3,11,3L11,3z"/>
	</g>
	<g>
		<path style="fill:#0E76B7;" d="M11.5,6h-7C4.225,6,4,6.225,4,6.5C4,6.775,4.225,7,4.5,7h7C11.775,7,12,6.775,12,6.5
			C12,6.225,11.775,6,11.5,6L11.5,6z"/>
	</g>
	<g>
		<path style="fill:#0E76B7;" d="M11.5,8h-7C4.225,8,4,8.225,4,8.5C4,8.775,4.225,9,4.5,9h7C11.775,9,12,8.775,12,8.5
			C12,8.225,11.775,8,11.5,8L11.5,8z"/>
	</g>
	<g>
		<path style="fill:#0E76B7;" d="M11.5,10h-7C4.225,10,4,10.225,4,10.5C4,10.775,4.225,11,4.5,11h7c0.275,0,0.5-0.225,0.5-0.5
			C12,10.225,11.775,10,11.5,10L11.5,10z"/>
	</g>
	<g>
		<path style="fill:#0E76B7;" d="M8.5,12h-4C4.225,12,4,12.225,4,12.5C4,12.775,4.225,13,4.5,13h4C8.775,13,9,12.775,9,12.5
			C9,12.225,8.775,12,8.5,12L8.5,12z"/>
	</g>
</g>
</svg>
