<?xml version="1.0" encoding="UTF-8"?><svg id="Lager_1" xmlns="http://www.w3.org/2000/svg" viewBox="0 0 24 24"><defs><style>.cls-1{fill:#e56385;}.cls-2{fill:#fff;}.cls-3{fill:#848484;}</style></defs><circle id="Ellipse_12095" class="cls-1" cx="18" cy="18" r="6"/><path class="cls-2" d="m19.4142,18l1.0607-1.0607c.3906-.3905.3906-1.0237,0-1.4142-.3905-.3906-1.0237-.3906-1.4142,0l-1.0607,1.0607-1.0607-1.0607c-.3905-.3906-1.0237-.3906-1.4142,0-.3906.3905-.3906,1.0237,0,1.4142l1.0607,1.0607-1.0607,1.0607c-.3906.3905-.3906,1.0237,0,1.4142.3905.3906,1.0237.3906,1.4142,0l1.0607-1.0607,1.0607,1.0607c.3905.3906,1.0237.3906,1.4142,0,.3906-.3905.3906-1.0237,0-1.4142l-1.0607-1.0607Z"/><path class="cls-3" d="m18.5,3h-9.5v-.5c0-1.3807-1.1193-2.5-2.5-2.5H2.5C1.1193,0,0,1.1193,0,2.5v12.0907c0,.2541.3324.3507.4622.1322,1.1709-1.9703,4.1616-7.0057,4.1616-7.0057.4456-.7508,1.267-1.2172,2.1436-1.2172h14.2326v-1c0-1.3807-1.1193-2.5-2.5-2.5Z"/><path class="cls-3" d="m18,10c1.7239,0,3.3163.5507,4.6225,1.4781l1.0261-2.0748c.3205-.6481-.1579-1.4033-.889-1.4033H6.7674c-.3513,0-.6761.1837-.8536.4827L1.137,16.5315c-.386.6504.0896,1.4685.8536,1.4685h8.0094c0-4.4183,3.5817-8,8-8Z"/></svg>