<?xml version="1.0" encoding="utf-8"?>
<!-- Generator: Adobe Illustrator 25.1.0, SVG Export Plug-In . SVG Version: 6.00 Build 0)  -->
<svg version="1.1" id="Lager_1" xmlns="http://www.w3.org/2000/svg" xmlns:xlink="http://www.w3.org/1999/xlink" x="0px" y="0px"
	 viewBox="0 0 30 30" style="enable-background:new 0 0 30 30;" xml:space="preserve">
<style type="text/css">
	.st0{fill:#EEEEEE;}
	.st1{fill:#999999;}
	.st2{opacity:0.996;fill:#CCCCCC;enable-background:new    ;}
</style>
<g id="Group_6783" transform="translate(-369 -258)">
	<circle id="Ellipse_1532" class="st0" cx="384" cy="273" r="14"/>
	<path id="Intersection_140" class="st1" d="M376.5,283c1-4.1,5.2-6.6,9.4-5.6c2.8,0.7,4.9,2.8,5.6,5.6c-2.2,1.5-4.8,2.2-7.5,2.2
		C381.4,285.3,378.8,284.5,376.5,283z"/>
	<path id="Path_11264" class="st2" d="M384,266c2.4,0,4.4,1.9,4.4,4.4c0,0,0,0,0,0v1.1c0,2.4-2,4.4-4.4,4.4c0,0,0,0,0,0
		c-2.4,0-4.4-1.9-4.4-4.4c0,0,0,0,0,0v-1.1C379.6,267.9,381.6,266,384,266C384,266,384,266,384,266z"/>
</g>
</svg>
