<?xml version="1.0" encoding="utf-8"?>
<!-- Generator: Adobe Illustrator 24.1.0, SVG Export Plug-In . SVG Version: 6.00 Build 0)  -->
<svg version="1.1" id="Lager_1" xmlns="http://www.w3.org/2000/svg" xmlns:xlink="http://www.w3.org/1999/xlink" x="0px" y="0px"
	 viewBox="0 0 16 16" style="enable-background:new 0 0 16 16;" xml:space="preserve">
<style type="text/css">
	.st0{fill:#6CC04A;}
	.st1{fill:#FFFFFF;}
	.st2{fill:#E56385;}
</style>
<g id="Group_6731">
	<path class="st0" d="M12.8,8.1c-0.6,2.3-2.4,4.1-4.7,4.7C8,12.5,8,12.3,8,12c0-2.2,1.8-4,4-4C12.3,8,12.5,8,12.8,8.1z"/>
	<path class="st0" d="M13,6.5c0,0.2,0,0.4,0,0.6C12.7,7,12.3,7,12,7c-2.8,0-5,2.2-5,5c0,0.3,0,0.7,0.1,1c-0.2,0-0.4,0-0.6,0
		C2.9,13,0,10.1,0,6.5C0,2.9,2.9,0,6.5,0C10.1,0,13,2.9,13,6.5z"/>
	<path id="Path_10814_1_" class="st1" d="M9,5.9c0.3,0.2,0.4,0.6,0.2,0.9c0,0,0,0,0,0L9,7.1l-3.6,2C5.1,9.3,4.7,9.2,4.6,8.9
		c0,0,0,0,0,0C4.5,8.8,4.5,8.6,4.5,8.5V4.5c0-0.3,0.3-0.6,0.7-0.7c0.1,0,0.2,0,0.3,0.1L9,5.9z"/>
</g>
<path class="st2" d="M16,12c0,2.2-1.8,4-4,4c-1.9,0-3.5-1.4-3.9-3.2C8,12.5,8,12.3,8,12c0-2.2,1.8-4,4-4c0.3,0,0.5,0,0.8,0.1
	C14.6,8.5,16,10.1,16,12z"/>
<path id="Union_3511" class="st1" d="M9.9,13.1l1.1-1.1l-1.1-1.1c-0.3-0.3-0.3-0.8,0-1.1s0.8-0.3,1.1,0l1.1,1.1l1.1-1.1
	c0.3-0.3,0.8-0.3,1.1,0c0.3,0.3,0.3,0.8,0,1.1c0,0,0,0,0,0L13.1,12l1.1,1.1c0.3,0.3,0.3,0.8,0,1.1c0,0,0,0,0,0
	c-0.3,0.3-0.8,0.3-1.1,0c0,0,0,0,0,0L12,13.1l-1.1,1.1c-0.3,0.3-0.8,0.3-1.1,0c0,0,0,0,0,0C9.6,13.8,9.6,13.4,9.9,13.1z"/>
</svg>
