<?xml version="1.0" encoding="utf-8"?>
<!-- Generator: Adobe Illustrator 24.1.0, SVG Export Plug-In . SVG Version: 6.00 Build 0)  -->
<svg version="1.1" id="Lager_1" xmlns="http://www.w3.org/2000/svg" xmlns:xlink="http://www.w3.org/1999/xlink" x="0px" y="0px"
	 viewBox="0 0 16 16" style="enable-background:new 0 0 16 16;" xml:space="preserve">
<style type="text/css">
	.st0{fill:#6CC04A;}
	.st1{fill:#FFFFFF;}
</style>
<path id="Path_10813_1_" class="st0" d="M8,0c4.4,0,8,3.6,8,8s-3.6,8-8,8s-8-3.6-8-8C0,3.6,3.6,0,8,0z"/>
<path id="Path_10814_1_" class="st1" d="M11.1,7.3c0.4,0.2,0.5,0.7,0.3,1.1c0,0,0,0,0,0l-0.3,0.3l-4.4,2.5c-0.4,0.2-0.9,0.1-1.1-0.3
	c0,0,0,0,0,0c-0.1-0.1-0.1-0.3-0.1-0.4v-5c0-0.4,0.4-0.8,0.8-0.8c0.1,0,0.3,0,0.4,0.1L11.1,7.3z"/>
</svg>
