<?xml version="1.0" encoding="utf-8"?>
<!-- Generator: Adobe Illustrator 23.0.1, SVG Export Plug-In . SVG Version: 6.00 Build 0)  -->
<svg version="1.1" id="Lager_1" xmlns="http://www.w3.org/2000/svg" xmlns:xlink="http://www.w3.org/1999/xlink" x="0px" y="0px"
	 viewBox="0 0 64 64" style="enable-background:new 0 0 64 64;" xml:space="preserve">
<style type="text/css">
	.st0{fill:#0E76B7;}
</style>
<path class="st0" d="M32,8C18.7,8,8,18.7,8,32s10.7,24,24,24s24-10.7,24-24S45.3,8,32,8z M32,12c4.8,0,9.1,1.8,12.6,4.6l-28,28
	C13.8,41.1,12,36.8,12,32C12,21,21,12,32,12z M32,52c-4.8,0-9.1-1.8-12.6-4.6l28-28C50.2,22.9,52,27.2,52,32C52,43,43,52,32,52z"/>
</svg>
