<?xml version="1.0" encoding="utf-8"?>
<!-- Generator: Adobe Illustrator 26.0.2, SVG Export Plug-In . SVG Version: 6.00 Build 0)  -->
<svg version="1.1" id="Lager_1" xmlns="http://www.w3.org/2000/svg" xmlns:xlink="http://www.w3.org/1999/xlink" x="0px" y="0px"
	 viewBox="0 0 48 48" style="enable-background:new 0 0 48 48;" xml:space="preserve">
<path d="M34,4.5H14c-5.2,0-9.5,4.3-9.5,9.5v20c0,5.2,4.3,9.5,9.5,9.5h20c5.2,0,9.5-4.3,9.5-9.5V14C43.5,8.8,39.2,4.5,34,4.5z
	 M14,7.5h20c3.6,0,6.5,2.9,6.5,6.5v8.7h-5.1l-3.2-9.6l-0.1-0.2c-0.3-0.7-1.1-1.1-1.8-1.1s-1.5,0.4-1.8,1.1L23,31.2l-4.6-13.7
	l-0.1-0.2c-0.3-0.7-1.1-1.1-1.8-1.1s-1.5,0.4-1.8,1.1l-1.9,5.2H7.5V14C7.5,10.4,10.4,7.5,14,7.5z M34,40.5H14
	c-3.6,0-6.5-2.9-6.5-6.5v-8.5h6.1c0.9,0,1.7-0.7,1.9-1.5l1-2.8l4.7,13.9l0.1,0.2c0.3,0.7,1.1,1.1,1.8,1.1c0,0,0,0,0,0
	c0.8,0,1.5-0.4,1.8-1.1L30.4,17l2.4,7.1c0.2,0.9,1,1.6,1.9,1.6h5.9V34C40.5,37.6,37.6,40.5,34,40.5z"/>
</svg>
