<?xml version="1.0" encoding="utf-8"?>
<!-- Generator: Adobe Illustrator 26.0.2, SVG Export Plug-In . SVG Version: 6.00 Build 0)  -->
<svg version="1.1" id="Lager_1" xmlns="http://www.w3.org/2000/svg" xmlns:xlink="http://www.w3.org/1999/xlink" x="0px" y="0px"
	 viewBox="0 0 54 54" style="enable-background:new 0 0 54 54;" xml:space="preserve">
<style type="text/css">
	.st0{fill:#DDD7E9;}
</style>
<g>
	<circle class="st0" cx="33" cy="9" r="2.5"/>
	<circle class="st0" cx="39" cy="15" r="2.5"/>
	<circle class="st0" cx="15" cy="21" r="3"/>
	<circle class="st0" cx="21" cy="21" r="3"/>
	<circle class="st0" cx="33" cy="21" r="2.5"/>
	<circle class="st0" cx="39" cy="21" r="3"/>
	<circle class="st0" cx="21" cy="27" r="3"/>
	<circle class="st0" cx="27" cy="27" r="2.5"/>
	<circle class="st0" cx="33" cy="27" r="3"/>
	<circle class="st0" cx="27" cy="33" r="3"/>
	<circle class="st0" cx="45" cy="9" r="3"/>
	<circle class="st0" cx="45" cy="15" r="3"/>
	<circle class="st0" cx="51" cy="9" r="3"/>
	<g>
		<circle class="st0" cx="3" cy="9" r="2"/>
		<circle class="st0" cx="9" cy="9" r="2.5"/>
		<circle class="st0" cx="15" cy="9" r="3"/>
		<circle class="st0" cx="21" cy="9" r="3"/>
		<circle class="st0" cx="27" cy="9" r="3"/>
		<circle class="st0" cx="3" cy="15" r="2.5"/>
		<circle class="st0" cx="3" cy="21" r="3"/>
		<circle class="st0" cx="3" cy="27" r="3"/>
		<circle class="st0" cx="3" cy="33" r="3"/>
		<circle class="st0" cx="39" cy="33" r="3"/>
		<circle class="st0" cx="3" cy="39" r="2.5"/>
		<circle class="st0" cx="39" cy="39" r="2.5"/>
		<circle class="st0" cx="3" cy="45" r="2"/>
		<circle class="st0" cx="9" cy="45" r="2.5"/>
		<circle class="st0" cx="15" cy="45" r="3"/>
		<circle class="st0" cx="21" cy="45" r="3"/>
		<circle class="st0" cx="27" cy="45" r="3"/>
		<circle class="st0" cx="33" cy="45" r="2.5"/>
		<circle class="st0" cx="39" cy="45" r="2"/>
	</g>
</g>
<circle class="st0" cx="15" cy="39" r="1"/>
<circle class="st0" cx="21" cy="39" r="1"/>
<circle class="st0" cx="27" cy="39" r="1"/>
<circle class="st0" cx="33" cy="39" r="1"/>
<circle class="st0" cx="9" cy="39" r="1"/>
<circle class="st0" cx="9" cy="15" r="1"/>
<circle class="st0" cx="9" cy="21" r="1"/>
<circle class="st0" cx="9" cy="27" r="1"/>
<circle class="st0" cx="9" cy="33" r="1"/>
</svg>
