<?xml version="1.0" encoding="UTF-8"?>
<svg id="Layer_1" xmlns="http://www.w3.org/2000/svg" version="1.1" viewBox="0 0 1199 574">
  <!-- Generator: Adobe Illustrator 30.0.0, SVG Export Plug-In . SVG Version: 2.1.1 Build 123)  -->
  <defs>
    <style>
      .st0 {
        fill: #fff;
      }
    </style>
  </defs>
  <path class="st0" d="M317.5,125.5v50h55v-50h-55ZM463.5,319v-60.5c0-11,7-18,18-18h75.5c10,0,15,6,15,14.5,0,9-4,12.5-10.5,16l-98,48ZM463.5,385.5v-14.5l125-61c29-14,38.5-30,38.5-56.5,0-31-22.5-58-62-58h-91.5c-37,0-65,28-65,65v123c0,37,28,65,65,65h149.5v-45h-141.5c-11,0-18-7-18-18ZM317.5,197.5v251h55v-251h-55ZM281.5,448.5v-45h-83c-11,0-18-7-18-18v-143h101v-45h-101v-72h-3.5l-51.5,25v233c0,38,27,65,65,65h91ZM1008.5,195.5h-100c-37,0-65,28-65,65v124c0,37,28,65,65,65h100c37,0,65-28,65-65v-124c0-37-28-65-65-65ZM1018.5,258.5v128c0,11-7,18-18,18h-84c-11,0-18-7-18-18v-128c0-11,7-18,18-18h84c11,0,18,7,18,18ZM815.5,448.5v-45h-83c-11,0-18-7-18-18v-143h101v-45h-101v-72h-3.5l-51.5,25v233c0,38,27,65,65,65h91Z"/>
</svg>