<?xml version="1.0" encoding="utf-8"?>
<!-- Generator: Adobe Illustrator 23.1.1, SVG Export Plug-In . SVG Version: 6.00 Build 0)  -->
<svg version="1.1" id="Lager_1" xmlns="http://www.w3.org/2000/svg" xmlns:xlink="http://www.w3.org/1999/xlink" x="0px" y="0px"
	 viewBox="0 0 245 300" style="enable-background:new 0 0 245 300;" xml:space="preserve">
<style type="text/css">
	.st0{fill:#61B3E3;}
	.st1{fill:#FFFFFF;}
</style>
<g>
	<g>
		<polygon class="st0" points="245,0 1.8,243.2 58.5,300 245,300 		"/>
	</g>
	<g>
		<g>
			<g>
				<path class="st1" d="M125.4,254.2c0.2,4.8,3.1,8,8.1,8c2.9,0,5.7-1.3,6.8-3.9h11.2c-2.2,8.2-10,11.7-18.1,11.7
					c-11.9,0-19.9-6.9-19.9-18.8c0-10.8,8.9-18.6,19.6-18.6c13,0,19.6,9.5,19,21.5H125.4z M140.2,247.8c-0.2-3.9-3.1-7.2-7.1-7.2
					c-4.2,0-7,2.9-7.7,7.2H140.2z"/>
				<path class="st1" d="M196.1,232.7c11.3,0,19.2,8.1,19.2,18.7c0,10.6-7.9,18.7-19.2,18.7c-11.3,0-19.1-8-19.1-18.7
					C176.9,240.8,184.8,232.7,196.1,232.7z M196.1,261.2c5.5,0,7.3-5.3,7.3-9.8c0-4.5-1.8-9.9-7.3-9.9c-5.5,0-7.2,5.4-7.2,9.9
					C188.8,255.9,190.5,261.2,196.1,261.2z"/>
				<path class="st1" d="M96.1,241.3h-7.4v15.7c0,2.9,1.7,3.5,4.3,3.5c1,0,2-0.1,3.1-0.1v8.8c-2.2,0.1-4.4,0.4-6.5,0.4
					c-10.2,0-12.8-2.9-12.8-12.8v-15.4h-6v-7.7h6v-11.8h11.9v11.8h7.4V241.3z"/>
				<path class="st1" d="M111.2,230.4H99.3v-8.6h11.9V230.4z M99.3,233.6h11.9v35.6H99.3V233.6z"/>
				<path class="st1" d="M176.8,241.3h-7.4v15.7c0,2.9,1.7,3.5,4.3,3.5c1,0,2-0.1,3.1-0.1v8.8c-2.2,0.1-4.4,0.4-6.5,0.4
					c-10.2,0-12.8-2.9-12.8-12.8v-15.4h-6v-7.7h6v-11.8h11.9v11.8h7.4V241.3z"/>
			</g>
		</g>
	</g>
</g>
</svg>
