<?xml version="1.0" encoding="iso-8859-1"?>
<!-- Generator: Adobe Illustrator 22.1.0, SVG Export Plug-In . SVG Version: 6.00 Build 0)  -->
<!DOCTYPE svg PUBLIC "-//W3C//DTD SVG 1.1//EN" "http://www.w3.org/Graphics/SVG/1.1/DTD/svg11.dtd">
<svg version="1.1" id="Lager_1" xmlns="http://www.w3.org/2000/svg" xmlns:xlink="http://www.w3.org/1999/xlink" x="0px" y="0px"
	 viewBox="24 -24 64 64" style="enable-background:new 24 -24 64 64;" xml:space="preserve">
<g id="Lager_2" style="display:none;">
	<polygon style="display:inline;" points="31.8,-1.5 27.1,18.3 67.5,18.3 66,-2.3 	"/>
	<polygon style="display:inline;" points="80.2,-1.5 84.9,18.3 44.5,18.3 46,-2.3 	"/>
</g>
<path style="fill:#0E76B7;" d="M75,4.091V-5c0-10.4-8.5-19-19-19S37-15.4,37-5v1h0.022c0.006,1.094,0.893,1.979,1.989,1.979S40.993-2.906,40.999-4H41v-1
	c0-8.3,6.7-15,15-15s15,6.7,15,15v9H49.8H38c-3.3,0-6,2.7-6,6v24c0,3.3,2.7,6,6,6h36c3.3,0,6-2.7,6-6V10
	C80,7.041,77.827,4.571,75,4.091z M76,34c0,1.1-0.9,2-2,2H38c-1.1,0-2-0.9-2-2V10c0-1.1,0.9-2,2-2h11.8H74c1.1,0,2,0.9,2,2V34z"/>
</svg>
