<?xml version="1.0" encoding="utf-8"?>
<!-- Generator: Adobe Illustrator 25.1.0, SVG Export Plug-In . SVG Version: 6.00 Build 0)  -->
<svg version="1.1" id="Lager_1" xmlns="http://www.w3.org/2000/svg" xmlns:xlink="http://www.w3.org/1999/xlink" x="0px" y="0px"
	 viewBox="0 0 30 30" style="enable-background:new 0 0 30 30;" xml:space="preserve">
<style type="text/css">
	.st0{fill:#EEEEEE;}
	.st1{opacity:0.703;fill:#999999;enable-background:new    ;}
	.st2{fill:#999999;}
	.st3{fill:#CCCCCC;}
	.st4{opacity:0.603;fill:#CCCCCC;enable-background:new    ;}
</style>
<circle class="st0" cx="15" cy="15" r="14"/>
<path class="st1" d="M11,19.2c-0.5,0.2-1,0.5-1.4,0.9c-1.2,1-2.2,2.3-2.7,3.7c-1.1-1-2.1-2.3-2.7-3.7c1.1-1,2.5-1.6,4-1.6
	C9.2,18.5,10.2,18.7,11,19.2z"/>
<path class="st1" d="M26,19.9c-0.7,1.5-1.6,2.8-2.8,3.9c-0.6-1.5-1.5-2.8-2.7-3.7c-0.4-0.3-0.8-0.6-1.2-0.8c0.9-0.5,1.9-0.8,3-0.8
	C23.6,18.5,24.9,19,26,19.9z"/>
<path class="st2" d="M22.3,24.5c-2,1.6-4.6,2.5-7.3,2.5c-2.8,0-5.3-0.9-7.3-2.5c1-3.1,3.9-5.3,7.3-5.3
	C18.4,19.2,21.3,21.4,22.3,24.5z"/>
<path class="st3" d="M19.5,12.4v1.1c0,0.7-0.2,1.3-0.4,1.8c-0.7,1.5-2.2,2.5-4,2.5c-1.7,0-3.1-0.9-3.9-2.2c-0.4-0.6-0.6-1.4-0.6-2.1
	v-1.1c0-0.4,0.1-0.8,0.2-1.2C11.3,9.3,13,8,15,8c2.1,0,4,1.5,4.4,3.5C19.4,11.8,19.5,12.1,19.5,12.4z"/>
<g id="Group_6782" transform="translate(-4.82 -10)">
	<path id="Path_11264" class="st4" d="M14.4,22.4c0-0.6,0.1-1.3,0.4-1.9c-1.6-1-3.7-0.4-4.6,1.2c-0.3,0.5-0.5,1.1-0.5,1.7v0.8
		c0,1.8,1.5,3.3,3.3,3.3c0,0,0,0,0,0h0c0.9,0,1.7-0.3,2.3-0.9c-0.6-0.9-0.9-1.9-0.9-3L14.4,22.4z"/>
	<path id="Path_11265" class="st4" d="M27,20L27,20c-0.7,0-1.4,0.2-2,0.6c0.2,0.5,0.3,1.1,0.3,1.7v1.1c0,1-0.3,2-0.8,2.8
		c0.6,0.7,1.6,1.1,2.5,1.1h0c1.8,0,3.3-1.5,3.3-3.3c0,0,0,0,0,0v-0.8C30.3,21.4,28.8,20,27,20C27,20,27,20,27,20z"/>
</g>
</svg>
