<?xml version="1.0" encoding="iso-8859-1"?>
<!-- Generator: Adobe Illustrator 22.1.0, SVG Export Plug-In . SVG Version: 6.00 Build 0)  -->
<!DOCTYPE svg PUBLIC "-//W3C//DTD SVG 1.1//EN" "http://www.w3.org/Graphics/SVG/1.1/DTD/svg11.dtd">
<svg version="1.1" id="Lager_1" xmlns="http://www.w3.org/2000/svg" xmlns:xlink="http://www.w3.org/1999/xlink" x="0px" y="0px"
	 viewBox="0 0 16 16" style="enable-background:new 0 0 16 16;" xml:space="preserve">
<path style="fill: #7cc0eb;" d="M13.98,11.59l-2.68-0.53c-0.46-0.09-0.8-0.51-0.8-0.98V9.861c1.167-1.151,1.938-3.023,1.938-4.908
	C12.438,1.916,10.451,0,8,0S3.562,1.916,3.562,4.953c0,1.855,0.794,3.695,1.938,4.85v0.277c0,0.47-0.34,0.89-0.8,0.98l-2.68,0.53
	C0.87,11.77,0,12.78,0,13.95c0,0.67,0.49,1.23,1.14,1.32C1.52,15.34,5.36,16,8,16s6.48-0.66,6.86-0.73
	c0.65-0.09,1.14-0.65,1.14-1.32C16,12.78,15.13,11.77,13.98,11.59z M4.562,4.953C4.562,2.626,5.976,1,8,1s3.438,1.626,3.438,3.953
	C11.438,7.547,9.767,10,8,10C6.297,10,4.562,7.453,4.562,4.953z M14.71,14.28c0,0-4.05,0.72-6.71,0.72s-6.71-0.72-6.71-0.72
	C1.13,14.26,1,14.12,1,13.95c0-0.69,0.51-1.27,1.19-1.37l2.7-0.54c0.781-0.16,1.356-0.762,1.53-1.509C6.92,10.827,7.454,11,8,11
	c0.56,0,1.096-0.165,1.591-0.447c0.174,0.736,0.74,1.328,1.519,1.487l2.7,0.54c0.68,0.1,1.19,0.68,1.19,1.37
	C15,14.12,14.87,14.26,14.71,14.28z"/>
</svg>
