<?xml version="1.0" encoding="utf-8"?>
<!-- Generator: Adobe Illustrator 25.1.0, SVG Export Plug-In . SVG Version: 6.00 Build 0)  -->
<svg version="1.1" id="Lager_1" xmlns="http://www.w3.org/2000/svg" xmlns:xlink="http://www.w3.org/1999/xlink" x="0px" y="0px"
	 viewBox="0 0 60 60" style="enable-background:new 0 0 60 60;" xml:space="preserve">
<style type="text/css">
	.st0{fill:#FDEFE2;}
	.st1{opacity:0.504;}
	.st2{opacity:0.998;fill:#F7A051;enable-background:new    ;}
	.st3{fill:#F7A051;}
</style>
<path id="tagan_quin" class="st0" d="M55.1,16.8L55.1,16.8c-0.8-6.2-5.8-11.1-12-11.8l-2-0.3c-8.1-1-16.2-1-24.2,0.1l0,0
	C10.6,5.7,5.8,10.6,5,16.8l-0.3,2c-1,8.1-0.9,16.3,0.1,24.4l0,0c0.8,6.2,5.8,11.1,12,11.8l2,0.3c8.1,1,16.3,0.9,24.4-0.1l0,0
	c6.2-0.8,11.1-5.8,11.8-12l0.3-2C56.3,33.1,56.2,24.9,55.1,16.8z"/>
<g id="Group_6768" transform="translate(-1.308 2.102)" class="st1">
	<path id="Intersection_82" class="st2" d="M21.9,41.9L21.9,41.9c-0.8-0.7-1.3-1.7-1.3-2.8v-1.5c0-3.4,2.7-6.1,6.1-6.1c0,0,0,0,0,0
		h8.9c3.4,0,6.1,2.7,6.1,6.1v1.5c0,1.1-0.5,2.1-1.3,2.8L40.3,42c-0.5,0.4-1.1,0.6-1.7,0.7c-2.5,0.4-5.1,0.6-7.6,0.6
		c-2,0-5.4-0.4-7.1-0.6C23.1,42.6,22.4,42.3,21.9,41.9z"/>
	<path id="Path_11191" class="st3" d="M31.2,16.1c3.3,0,6.1,2.6,6.1,6v1.5c0,3.4-2.7,6.1-6.1,6.1s-6.1-2.7-6.1-6.1v-1.5
		C25.1,18.8,27.8,16.1,31.2,16.1z"/>
</g>
<g id="Union_3364" transform="translate(-2845 -604.965)">
	<path class="st3" d="M2883.5,653.5h-2c-0.6,0-1-0.4-1-1v-1.2l-0.8,0.8c-0.2,0.2-0.4,0.3-0.7,0.3s-0.5-0.1-0.7-0.3l-1.4-1.4
		c-0.2-0.2-0.3-0.4-0.3-0.7c0-0.3,0.1-0.5,0.3-0.7l0.8-0.8h-1.2c-0.6,0-1-0.4-1-1v-2c0-0.6,0.4-1,1-1h1.2l-0.8-0.8
		c-0.2-0.2-0.3-0.4-0.3-0.7s0.1-0.5,0.3-0.7l1.4-1.4c0.2-0.2,0.4-0.3,0.7-0.3s0.5,0.1,0.7,0.3l0.8,0.8v-1.2c0-0.6,0.4-1,1-1h2
		c0.6,0,1,0.4,1,1v1.2l0.8-0.8c0.2-0.2,0.4-0.3,0.7-0.3s0.5,0.1,0.7,0.3l1.4,1.4c0.2,0.2,0.3,0.4,0.3,0.7s-0.1,0.5-0.3,0.7l-0.8,0.8
		h1.2c0.6,0,1,0.4,1,1v2c0,0.6-0.4,1-1,1h-1.2l0.8,0.8c0.2,0.2,0.3,0.4,0.3,0.7c0,0.3-0.1,0.5-0.3,0.7l-1.4,1.4
		c-0.2,0.2-0.4,0.3-0.7,0.3s-0.5-0.1-0.7-0.3l-0.8-0.8v1.2C2884.5,653,2884.1,653.5,2883.5,653.5z"/>
	<path class="st0" d="M2883.5,653c0.3,0,0.5-0.2,0.5-0.5v-1.8c0.2-0.1,0.3-0.1,0.4-0.2l1.2,1.2c0.1,0.1,0.2,0.1,0.4,0.1
		c0.1,0,0.3,0,0.4-0.1l1.4-1.4c0.2-0.2,0.2-0.5,0-0.7l-1.2-1.2c0.1-0.1,0.1-0.3,0.2-0.4h1.8c0.3,0,0.5-0.2,0.5-0.5v-2
		c0-0.3-0.2-0.5-0.5-0.5h-1.8c-0.1-0.2-0.1-0.3-0.2-0.4l1.2-1.2c0.2-0.2,0.2-0.5,0-0.7l-1.4-1.4c-0.1-0.1-0.2-0.1-0.4-0.1
		c-0.1,0-0.3,0-0.4,0.1l-1.2,1.2c-0.1-0.1-0.3-0.1-0.4-0.2v-1.8c0-0.3-0.2-0.5-0.5-0.5h-2c-0.3,0-0.5,0.2-0.5,0.5v1.8
		c-0.2,0.1-0.3,0.1-0.4,0.2l-1.2-1.2c-0.1-0.1-0.2-0.1-0.4-0.1s-0.3,0-0.4,0.1l-1.4,1.4c-0.2,0.2-0.2,0.5,0,0.7l1.2,1.2
		c-0.1,0.1-0.1,0.3-0.2,0.4h-1.8c-0.3,0-0.5,0.2-0.5,0.5v2c0,0.3,0.2,0.5,0.5,0.5h1.8c0.1,0.2,0.1,0.3,0.2,0.4l-1.2,1.2
		c-0.2,0.2-0.2,0.5,0,0.7l1.4,1.4c0.1,0.1,0.2,0.1,0.4,0.1s0.3,0,0.4-0.1l1.2-1.2c0.1,0.1,0.3,0.1,0.4,0.2v1.8
		c0,0.3,0.2,0.5,0.5,0.5H2883.5 M2883.5,654h-2c-0.8,0-1.5-0.7-1.5-1.5c-0.3,0.3-0.6,0.4-1,0.4c-0.4,0-0.8-0.2-1.1-0.4l-1.4-1.4
		c-0.3-0.3-0.4-0.7-0.4-1.1c0-0.4,0.1-0.8,0.4-1c-0.8,0-1.5-0.7-1.5-1.5v-2c0-0.8,0.7-1.5,1.5-1.5c-0.3-0.3-0.4-0.6-0.4-1
		c0-0.4,0.2-0.8,0.4-1.1l1.4-1.4c0.3-0.3,0.7-0.4,1.1-0.4c0.4,0,0.8,0.1,1,0.4c0-0.8,0.7-1.5,1.5-1.5h2c0.8,0,1.5,0.7,1.5,1.5
		c0.3-0.3,0.6-0.4,1-0.4c0.4,0,0.8,0.2,1.1,0.4l1.4,1.4c0.3,0.3,0.4,0.7,0.4,1.1c0,0.4-0.1,0.8-0.4,1c0.8,0,1.5,0.7,1.5,1.5v2
		c0,0.8-0.7,1.5-1.5,1.5c0.3,0.3,0.4,0.6,0.4,1c0,0.4-0.2,0.8-0.4,1.1l-1.4,1.4c-0.3,0.3-0.7,0.4-1.1,0.4c-0.4,0-0.8-0.1-1-0.4
		C2885,653.3,2884.3,654,2883.5,654z"/>
</g>
<circle id="Ellipse_1453" class="st0" cx="37.5" cy="41.5" r="2.5"/>
</svg>
