<?xml version="1.0" encoding="utf-8"?>
<!-- Generator: Adobe Illustrator 25.2.3, SVG Export Plug-In . SVG Version: 6.00 Build 0)  -->
<svg version="1.1" id="Lager_1" xmlns="http://www.w3.org/2000/svg" xmlns:xlink="http://www.w3.org/1999/xlink" x="0px" y="0px"
	 viewBox="0 0 72 72" style="enable-background:new 0 0 72 72;" xml:space="preserve">
<style type="text/css">
	.st0{fill:#C4E1F8;}
	.st1{fill:#62B3E5;}
	.st2{opacity:0.996;fill:#AFD8F1;enable-background:new    ;}
	.st3{fill:#78B8ED;}
	.st4{opacity:0.996;fill:#A1CEF2;enable-background:new    ;}
</style>
<path id="Path_13713" class="st0" d="M36,2c18.8,0,34,15.2,34,34S54.8,70,36,70S2,54.8,2,36S17.2,2,36,2z"/>
<path id="Path_13711" class="st1" d="M55,58.4c-10.9,9.1-26.7,9.1-37.6,0c0.9-6.8,6.7-11.9,13.5-12h10.3C48.1,46.4,54,51.5,55,58.4z
	"/>
<path id="Path_11434_4_" class="st2" d="M36.2,19.1c5.9,0,10.7,4.7,10.8,10.6v2.7C47,38.3,42.2,43,36.4,43c-0.1,0-0.1,0-0.2,0
	c-5.9,0-10.7-4.7-10.8-10.6v-2.7C25.5,23.8,30.3,19,36.2,19.1z"/>
<path id="Path_13712" class="st3" d="M55,58.4c-10.9,9.1-26.7,9.1-37.6,0c0.9-6.8,6.7-11.9,13.5-12h10.3C48.1,46.4,54,51.5,55,58.4z
	"/>
<path id="Path_11434_3_" class="st4" d="M36.2,19.1c5.9,0,10.7,4.7,10.8,10.6v2.7C47,38.3,42.2,43,36.4,43c-0.1,0-0.1,0-0.2,0
	c-5.9,0-10.7-4.7-10.8-10.6v-2.7C25.5,23.8,30.3,19,36.2,19.1z"/>
</svg>
