<?xml version="1.0" encoding="utf-8"?>
<!-- Generator: Adobe Illustrator 25.2.3, SVG Export Plug-In . SVG Version: 6.00 Build 0)  -->
<svg version="1.1" id="Lager_1" xmlns="http://www.w3.org/2000/svg" xmlns:xlink="http://www.w3.org/1999/xlink" x="0px" y="0px"
	 viewBox="0 0 48 48" style="enable-background:new 0 0 48 48;" xml:space="preserve">
<g>
	<path style="fill: #7cc0eb;" d="M20.5,24.7c-0.2-0.2-0.4-0.4-0.6-0.6c-0.2-0.2-0.5-0.4-0.7-0.7c-2.3-2.5-4-6.4-4-10.4c0-5.8,3.6-10,8.8-10
		s8.8,4.2,8.8,10.2c0,2-0.4,4-1.1,5.8c1,0,2.1,0.2,3.1,0.6c0.7-2,1.1-4.2,1.1-6.4C35.8,5.5,30.9,0,24,0S12.2,5.5,12.2,13.2
		c0,4.6,2,9.6,5.1,12.8L17,26.8c-0.2,0.8-0.8,1.5-1.6,1.6l-6.9,1.4C5.4,30.3,3,33.1,3,36.3c0,1.9,1.4,3.5,3.3,3.8
		c0.7,0.1,7.5,1.3,13.7,1.8c-0.3-0.6-0.5-1.3-0.8-2c-0.1-0.4-0.2-0.7-0.2-1.1c-6-0.5-12.2-1.6-12.2-1.6C6.3,37.1,6,36.7,6,36.3
		c0-1.8,1.3-3.3,3.1-3.5l6.9-1.4c1.9-0.4,3.2-1.7,3.8-3.5c0.1,0,0.2,0.1,0.3,0.1c0.1-0.2,0.2-0.4,0.3-0.6c0.4-0.7,0.9-1.4,1.5-1.9
		c-0.2-0.1-0.5-0.3-0.7-0.4C21,25,20.8,24.8,20.5,24.7z"/>
	<path style="fill: #7cc0eb;" d="M46.6,35.3l-0.1-0.1l-0.1-0.1c-0.1-0.1-0.2-0.1-0.2-0.2c0,0,0-0.1,0.2-0.2l0.1-0.1l0.1-0.1c1.1-0.8,1.6-2.4,1.2-3.7
		c-0.2-0.8-0.5-1.5-0.9-2.2c-0.6-1.1-1.8-1.8-3.1-1.8h-0.4L43.2,27c-0.1,0-0.1,0-0.2,0c-0.1,0-0.1,0-0.1,0c0,0,0-0.1,0-0.2l0-0.1
		l0-0.1c0.3-1.4-0.5-2.9-1.8-3.6c-0.7-0.4-1.4-0.7-2.2-0.9l0,0l0,0C38.7,22,38.4,22,38.1,22c-1.1,0-2.2,0.5-2.8,1.4l-0.1,0.1
		l-0.1,0.1c-0.1,0.1-0.1,0.2-0.2,0.2c0,0-0.1,0-0.1-0.2l-0.1-0.1l-0.1-0.1C34.1,22.5,33,22,31.9,22c-0.3,0-0.6,0-0.9,0.1l0,0l0,0
		c-0.8,0.2-1.5,0.5-2.2,0.9c-1.3,0.7-2,2.2-1.8,3.6l0,0.1l0,0.1c0,0.1,0,0.2,0,0.2c0,0,0,0,0,0c0,0,0,0-0.1,0c0,0-0.1,0-0.1,0
		l-0.4-0.1h-0.4c-1.3,0-2.5,0.7-3.1,1.8c-0.4,0.7-0.7,1.4-0.9,2.2c-0.4,1.3,0.1,2.9,1.2,3.7l0.1,0.1l0.1,0.1
		c0.1,0.1,0.2,0.1,0.2,0.2c0,0,0,0.1-0.2,0.2l-0.1,0.1l-0.1,0.1c-1.1,0.8-1.6,2.4-1.2,3.7c0.2,0.8,0.5,1.5,0.9,2.2
		c0.6,1.1,1.8,1.8,3.1,1.8h0.4l0.3-0.1c0.1,0,0.1,0,0.2,0c0.1,0,0.1,0,0.1,0c0,0,0,0.1,0,0.2l0,0.1l0,0.1c-0.3,1.4,0.5,2.9,1.8,3.6
		c0.7,0.4,1.4,0.7,2.2,0.9l0.1,0l0.1,0c0.2,0.1,0.5,0.1,0.8,0.1c1.1,0,2.2-0.5,2.8-1.4l0.1-0.1l0.1-0.1c0.1-0.1,0.1-0.2,0.2-0.2
		c0,0,0.1,0,0.1,0.2l0.1,0.1l0.1,0.1c0.6,0.8,1.7,1.4,2.8,1.4c0.3,0,0.6,0,0.9-0.1l0,0l0,0c0.8-0.2,1.5-0.5,2.2-0.9
		c1.3-0.7,2-2.2,1.8-3.6l0-0.1l0-0.1c0-0.1,0-0.2,0-0.2c0,0,0,0,0,0c0,0,0,0,0.1,0c0,0,0.1,0,0.1,0l0.4,0.1h0.4
		c1.3,0,2.5-0.7,3.1-1.8c0.4-0.7,0.7-1.4,0.9-2.2C48.3,37.7,47.8,36.1,46.6,35.3z M44.9,37.7c0.1,0.1,0.2,0.3,0.1,0.4
		c-0.2,0.6-0.4,1.2-0.7,1.7c-0.1,0.1-0.3,0.2-0.4,0.2c0,0,0,0,0,0c-0.3-0.1-0.6-0.1-0.9-0.1c-0.8,0-1.6,0.3-2.2,0.9
		c-0.8,0.8-1.1,1.9-0.8,3.1c0,0.1-0.1,0.3-0.2,0.4c-0.5,0.3-1.1,0.5-1.7,0.7c0,0,0,0-0.1,0c-0.2,0-0.3-0.1-0.4-0.1
		c-0.6-1-1.6-1.6-2.7-1.6s-2.1,0.6-2.7,1.6c0,0-0.2,0.1-0.4,0.1c0,0-0.1,0-0.1,0c-0.6-0.2-1.2-0.4-1.7-0.7c-0.1-0.1-0.2-0.3-0.2-0.4
		c0.3-1.1,0-2.3-0.8-3.1c-0.6-0.6-1.3-0.9-2.2-0.9c-0.3,0-0.6,0-0.9,0.1c-0.1,0-0.3-0.1-0.4-0.2c-0.3-0.5-0.5-1.1-0.7-1.7
		c0-0.1,0-0.3,0.1-0.4c1-0.6,1.6-1.6,1.6-2.7s-0.6-2.1-1.6-2.7C25.1,32.2,25,32,25,31.9c0.2-0.6,0.4-1.2,0.7-1.7
		c0.1-0.1,0.3-0.2,0.4-0.2c0,0,0,0,0,0c0.3,0.1,0.6,0.1,0.9,0.1c0.8,0,1.6-0.3,2.2-0.9c0.8-0.8,1.1-1.9,0.8-3.1
		c0-0.1,0.1-0.3,0.2-0.4c0.5-0.3,1.1-0.5,1.7-0.7c0,0,0,0,0.1,0c0.2,0,0.3,0.1,0.4,0.1c0.6,1,1.6,1.6,2.7,1.6s2.1-0.6,2.7-1.6
		c0,0,0.2-0.1,0.4-0.1c0,0,0.1,0,0.1,0c0.6,0.2,1.2,0.4,1.7,0.7c0.1,0.1,0.2,0.3,0.2,0.4c-0.3,1.1,0,2.3,0.8,3.1
		c0.6,0.6,1.3,0.9,2.2,0.9c0.3,0,0.6,0,0.9-0.1c0.1,0,0.3,0.1,0.4,0.2c0.3,0.5,0.5,1.1,0.7,1.7c0,0.1,0,0.3-0.1,0.4
		c-1,0.6-1.6,1.6-1.6,2.7S43.9,37.1,44.9,37.7z"/>
	<path style="fill: #7cc0eb;" d="M35,29.5c-3,0-5.5,2.5-5.5,5.5s2.5,5.5,5.5,5.5s5.5-2.5,5.5-5.5S38,29.5,35,29.5z M35,37.5c-1.4,0-2.5-1.1-2.5-2.5
		s1.1-2.5,2.5-2.5s2.5,1.1,2.5,2.5S36.4,37.5,35,37.5z"/>
</g>
</svg>
