<?xml version="1.0" encoding="utf-8"?>
<!-- Generator: Adobe Illustrator 22.1.0, SVG Export Plug-In . SVG Version: 6.00 Build 0)  -->
<!DOCTYPE svg PUBLIC "-//W3C//DTD SVG 1.1//EN" "http://www.w3.org/Graphics/SVG/1.1/DTD/svg11.dtd">
<svg version="1.1" id="Lager_1" xmlns="http://www.w3.org/2000/svg" xmlns:xlink="http://www.w3.org/1999/xlink" x="0px" y="0px"
	 viewBox="0 0 64 64" style="enable-background:new 0 0 64 64;" xml:space="preserve">
<style type="text/css">
	.st0{fill:#ADD7F0;}
</style>
<path class="st0" d="M62.7,16.5l-0.4-2.2C61.3,7.8,56.2,2.7,49.6,1.6l-2.2-0.4c-10.2-1.7-20.7-1.7-30.9,0l-2.2,0.4
	C7.8,2.7,2.7,7.8,1.6,14.4l-0.4,2.2c-1.7,10.2-1.7,20.7,0,30.9l0.4,2.2c1.1,6.5,6.2,11.6,12.7,12.7l2.2,0.4
	c10.2,1.7,20.7,1.7,30.9,0l2.2-0.4c6.5-1.1,11.6-6.2,12.7-12.7l0.4-2.2C64.4,37.2,64.4,26.8,62.7,16.5z"/>
</svg>
