<?xml version="1.0" encoding="utf-8"?>
<!-- Generator: Adobe Illustrator 24.0.3, SVG Export Plug-In . SVG Version: 6.00 Build 0)  -->
<svg version="1.1" id="Lager_1" xmlns="http://www.w3.org/2000/svg" xmlns:xlink="http://www.w3.org/1999/xlink" x="0px" y="0px"
	 viewBox="0 0 16 16" style="enable-background:new 0 0 16 16;" xml:space="preserve">
<style type="text/css">
	.st0{fill: yellow;}
	.st1{fill:#FFFFFF;}
</style>
<path id="Polygon_8" class="st0" d="M6.27,1.65C6.8,0.69,8,0.35,8.96,0.89c0.32,0.18,0.58,0.44,0.76,0.76l6.02,10.78
	c0.53,0.95,0.19,2.16-0.76,2.69c-0.29,0.16-0.63,0.25-0.97,0.25H1.97c-1.09,0-1.98-0.88-1.98-1.98c0-0.34,0.09-0.67,0.25-0.97
	L6.27,1.65z"/>
<path id="Union_3314" class="st1" d="M7,12c0-0.55,0.45-1,1-1s1,0.45,1,1s-0.45,1-1,1S7,12.55,7,12z M7,9V6c0-0.55,0.45-1,1-1
	s1,0.45,1,1v3c0,0.55-0.45,1-1,1S7,9.55,7,9z"/>
</svg>
