<?xml version="1.0" encoding="utf-8"?>
<!-- Generator: Adobe Illustrator 26.0.2, SVG Export Plug-In . SVG Version: 6.00 Build 0)  -->
<svg version="1.1" id="Lager_1" xmlns="http://www.w3.org/2000/svg" xmlns:xlink="http://www.w3.org/1999/xlink" x="0px" y="0px"
	 viewBox="0 0 648 648" style="enable-background:new 0 0 648 648;" xml:space="preserve">
<style type="text/css">
	.st0{fill:#DDD7E9;}
</style>
<circle id="Circle-0" class="st0" cx="36" cy="36" r="18"/>
<circle id="Circle-1" class="st0" cx="108" cy="36" r="30"/>
<circle id="Circle-2" class="st0" cx="180" cy="36" r="30"/>
<circle id="Circle-3" class="st0" cx="252" cy="36" r="18"/>
<circle id="Circle-4" class="st0" cx="396" cy="36" r="18"/>
<circle id="Circle-5" class="st0" cx="468" cy="36" r="30"/>
<circle id="Circle-6" class="st0" cx="540" cy="36" r="30"/>
<circle id="Circle-7" class="st0" cx="612" cy="36" r="18"/>
<circle id="Circle-8" class="st0" cx="36" cy="108" r="30"/>
<circle id="Circle-9" class="st0" cx="108" cy="108" r="12"/>
<circle id="Circle-10" class="st0" cx="180" cy="108" r="12"/>
<circle id="Circle-11" class="st0" cx="252" cy="108" r="30"/>
<circle id="Circle-12" class="st0" cx="396" cy="108" r="30"/>
<circle id="Circle-13" class="st0" cx="468" cy="108" r="12"/>
<circle id="Circle-14" class="st0" cx="540" cy="108" r="12"/>
<circle id="Circle-15" class="st0" cx="612" cy="108" r="30"/>
<circle id="Circle-16" class="st0" cx="36" cy="180" r="30"/>
<circle id="Circle-17" class="st0" cx="108" cy="180" r="12"/>
<circle id="Circle-18" class="st0" cx="180" cy="180" r="12"/>
<circle id="Circle-19" class="st0" cx="252" cy="180" r="30"/>
<circle id="Circle-20" class="st0" cx="396" cy="180" r="30"/>
<circle id="Circle-21" class="st0" cx="612" cy="180" r="30"/>
<circle id="Circle-22" class="st0" cx="36" cy="252" r="18"/>
<circle id="Circle-23" class="st0" cx="108" cy="252" r="30"/>
<circle id="Circle-24" class="st0" cx="180" cy="252" r="30"/>
<circle id="Circle-25" class="st0" cx="252" cy="252" r="18"/>
<circle id="Circle-26" class="st0" cx="396" cy="252" r="30"/>
<circle id="Circle-27" class="st0" cx="468" cy="252" r="12"/>
<circle id="Circle-28" class="st0" cx="540" cy="252" r="12"/>
<circle id="Circle-29" class="st0" cx="612" cy="252" r="30"/>
<circle id="Circle-30" class="st0" cx="396" cy="324" r="18"/>
<circle id="Circle-31" class="st0" cx="468" cy="324" r="30"/>
<circle id="Circle-32" class="st0" cx="540" cy="324" r="30"/>
<circle id="Circle-33" class="st0" cx="612" cy="324" r="18"/>
<circle id="Circle-34" class="st0" cx="36" cy="396" r="18"/>
<circle id="Circle-35" class="st0" cx="108" cy="396" r="30"/>
<circle id="Circle-36" class="st0" cx="180" cy="396" r="30"/>
<circle id="Circle-37" class="st0" cx="252" cy="396" r="18"/>
<circle id="Circle-38" class="st0" cx="36" cy="468" r="30"/>
<circle id="Circle-39" class="st0" cx="108" cy="468" r="12"/>
<circle id="Circle-40" class="st0" cx="180" cy="468" r="12"/>
<circle id="Circle-41" class="st0" cx="252" cy="468" r="30"/>
<circle id="Circle-42" class="st0" cx="396" cy="468" r="18"/>
<circle id="Circle-43" class="st0" cx="468" cy="468" r="30"/>
<circle id="Circle-44" class="st0" cx="540" cy="468" r="30"/>
<circle id="Circle-45" class="st0" cx="612" cy="468" r="18"/>
<circle id="Circle-46" class="st0" cx="36" cy="540" r="30"/>
<circle id="Circle-47" class="st0" cx="108" cy="540" r="12"/>
<circle id="Circle-48" class="st0" cx="180" cy="540" r="12"/>
<circle id="Circle-49" class="st0" cx="252" cy="540" r="30"/>
<circle id="Circle-50" class="st0" cx="396" cy="540" r="30"/>
<circle id="Circle-51" class="st0" cx="468" cy="540" r="12"/>
<circle id="Circle-52" class="st0" cx="540" cy="540" r="12"/>
<circle id="Circle-53" class="st0" cx="612" cy="540" r="30"/>
<circle id="Circle-54" class="st0" cx="36" cy="612" r="18"/>
<circle id="Circle-55" class="st0" cx="108" cy="612" r="30"/>
<circle id="Circle-56" class="st0" cx="180" cy="612" r="30"/>
<circle id="Circle-57" class="st0" cx="252" cy="612" r="18"/>
<circle id="Circle-58" class="st0" cx="396" cy="612" r="18"/>
<circle id="Circle-59" class="st0" cx="468" cy="612" r="30"/>
<circle id="Circle-60" class="st0" cx="540" cy="612" r="30"/>
<circle id="Circle-61" class="st0" cx="612" cy="612" r="18"/>
</svg>
