<?xml version="1.0" encoding="iso-8859-1"?>
<!-- Generator: Adobe Illustrator 22.1.0, SVG Export Plug-In . SVG Version: 6.00 Build 0)  -->
<!DOCTYPE svg PUBLIC "-//W3C//DTD SVG 1.1//EN" "http://www.w3.org/Graphics/SVG/1.1/DTD/svg11.dtd">
<svg version="1.1" id="Lager_1" xmlns="http://www.w3.org/2000/svg" xmlns:xlink="http://www.w3.org/1999/xlink" x="0px" y="0px"
	 viewBox="24 -24 64 64" style="enable-background:new 24 -24 64 64;" xml:space="preserve">
<g>
	<path d="M32,1h10c1.1,0,2-0.9,2-2s-0.9-2-2-2h-5.003C40.797-9.571,47.884-14,56-14c12.1,0,22,9.9,22,22h4c0-14.4-11.6-26-26-26
		c-9.292,0-17.378,4.845-22,12.169V-11c0-1.1-0.9-2-2-2s-2,0.9-2,2v10C30,0.1,30.9,1,32,1z"/>
	<path d="M80,15H70c-1.1,0-2,0.9-2,2s0.9,2,2,2h5.043C71.221,25.56,64.17,30,56,30c-12.1,0-22-9.9-22-22h-4c0,14.4,11.6,26,26,26
		c9.321,0,17.441-4.847,22-12.152V27c0,1.1,0.9,2,2,2s2-0.9,2-2V17C82,15.9,81.1,15,80,15z"/>
</g>
</svg>
