<?xml version="1.0" encoding="utf-8"?>
<!-- Generator: Adobe Illustrator 25.2.1, SVG Export Plug-In . SVG Version: 6.00 Build 0)  -->
<svg version="1.1" id="Lager_1" xmlns="http://www.w3.org/2000/svg" xmlns:xlink="http://www.w3.org/1999/xlink" x="0px" y="0px"
	 viewBox="0 0 16 16" style="enable-background:new 0 0 16 16;" xml:space="preserve">
<g>
	<path d="M14.2,11.3c-0.2-0.2-0.5-0.2-0.7,0l-1,1V2.5C12.5,2.2,12.3,2,12,2s-0.5,0.2-0.5,0.5v9.8l-1-1c-0.2-0.2-0.5-0.2-0.7,0
		c-0.2,0.2-0.2,0.5,0,0.7l1.9,1.9c0.2,0.2,0.5,0.2,0.7,0l1.9-1.9C14.4,11.8,14.4,11.5,14.2,11.3z"/>
	<path d="M3.3,7.1c0.1,0.2,0.4,0.4,0.6,0.4h3.4c0.3,0,0.5-0.2,0.5-0.5S7.6,6.5,7.3,6.5H4.5l3.1-3.8c0.2-0.2,0.2-0.5,0.1-0.8
		C7.7,1.7,7.4,1.5,7.2,1.5H3.8C3.5,1.5,3.3,1.7,3.3,2s0.2,0.5,0.5,0.5h2.8L3.4,6.3C3.2,6.5,3.2,6.8,3.3,7.1z"/>
	<path d="M6.1,8.9c-0.2-0.5-1-0.5-1.2,0l-2.1,4.9c-0.1,0.3,0,0.5,0.3,0.7c0.3,0.1,0.5,0,0.7-0.3L4.2,13h2.6l0.5,1.2
		c0.1,0.2,0.3,0.3,0.5,0.3c0.1,0,0.1,0,0.2,0c0.3-0.1,0.4-0.4,0.3-0.7L6.1,8.9z M4.7,12l0.9-2l0.9,2H4.7z"/>
</g>
</svg>
